<svg width="291" height="124" viewBox="0 0 291 124" fill="none" xmlns="http://www.w3.org/2000/svg">
<path d="M53.8472 8.01438V23.044C53.8472 27.9944 51.3428 30.4473 46.8706 30.4473C42.2642 30.4473 39.7598 27.7714 39.7598 22.9548V7.92518C39.7598 3.10857 42.3537 0.298875 46.8259 0.298875C51.2981 0.298875 53.8472 3.19776 53.8472 8.01438ZM49.9117 23.267V7.65759C49.9117 5.33848 48.7936 4.04513 46.7812 4.04513C44.8581 4.04513 43.7401 5.29388 43.7401 7.61299V23.2224C43.7401 25.5415 44.8134 26.7457 46.8259 26.7457C48.7936 26.7457 49.9117 25.6307 49.9117 23.267Z" fill="#FEFEFE"/>
<path d="M67.9482 4.22352H60.6138V12.7864H64.8624C69.0663 12.7864 70.4974 14.8379 70.4974 18.8072V24.2482C70.4974 27.816 69.0663 30.1797 64.8624 30.1797H56.5889V0.566464H67.9482V4.22352ZM60.6138 26.5673H64.0574C66.2041 26.5673 66.696 25.4523 66.696 23.5346V19.4761C66.696 17.0678 66.2488 16.2651 64.0574 16.2651H60.6138V26.5673Z" fill="#FEFEFE"/>
<path d="M97.1247 37.6276H94.0836V30.1797H73.0643V0.566464H77.0893V26.5227H82.3217V0.566464H86.0784V26.5227H91.3108V0.566464H95.3358V26.5227H97.1247V37.6276Z" fill="#FEFEFE"/>
<path d="M110.632 30.1797H99.5411V0.566464H110.274V4.17893H103.477V12.831H109.693V16.4881H103.477V26.5673H110.632V30.1797Z" fill="#FEFEFE"/>
<path d="M123.064 23.267V18.0936H126.866V23.044C126.866 27.9944 124.496 30.4473 120.023 30.4473C115.417 30.4473 113.047 27.7714 113.047 22.9548V7.70219C113.047 2.75178 115.417 0.298875 119.889 0.298875C124.406 0.298875 126.866 2.75178 126.866 7.65759V11.1809H123.064V7.65759C123.064 5.33848 122.036 4.04513 120.023 4.04513C118.056 4.04513 117.027 5.29388 117.027 7.61299V23.267C117.027 25.5415 117.921 26.7457 120.023 26.7457C122.036 26.7457 123.064 25.6307 123.064 23.267Z" fill="#FEFEFE"/>
<path d="M137.323 30.1797H133.342V4.17893H128.378V0.566464H142.376V4.17893H137.323V30.1797Z" fill="#FEFEFE"/>
<path d="M153.494 30.1797H144.818V0.566464H152.913C157.028 0.566464 158.548 2.75178 158.548 6.49804V9.53072C158.548 12.2512 157.609 13.9014 155.552 14.3919V14.5703C157.788 14.9717 158.951 16.3097 158.951 19.4761V25.0955C158.951 28.485 157.475 30.1797 153.494 30.1797ZM154.97 23.8468V19.2085C154.97 17.157 154.165 16.3097 152.153 16.3097H148.754V26.7011H152.287C154.165 26.7011 154.97 25.7645 154.97 23.8468ZM154.791 9.9321V7.07782C154.791 5.07089 154.165 4.04513 152.153 4.04513H148.754V12.9648H152.198C153.763 12.9648 154.791 12.2066 154.791 9.9321Z" fill="#FEFEFE"/>
<path d="M172.647 30.1797H161.556V0.566464H172.289V4.17893H165.491V12.831H171.708V16.4881H165.491V26.5673H172.647V30.1797Z" fill="#FEFEFE"/>
<path d="M189.328 30.1797H185.348V16.2651H179.087V30.1797H175.062V0.566464H179.087V12.6972H185.348V0.566464H189.328V30.1797Z" fill="#FEFEFE"/>
<path d="M206.502 30.1797H202.522V16.2651H196.261V30.1797H192.236V0.566464H196.261V12.6972H202.522V0.566464H206.502V30.1797Z" fill="#FEFEFE"/>
<path d="M224.258 30.1797H220.322L219.159 23.2224H213.703L212.63 30.1797H208.739L213.793 0.566464H219.204L224.258 30.1797ZM216.342 6.81022L214.24 19.7883H218.623L216.521 6.81022H216.342Z" fill="#FEFEFE"/>
<path d="M229.806 30.1797H225.737L229.225 17.6922C226.676 16.8448 226.229 14.4365 226.229 11.2701V7.70219C226.229 3.33156 226.989 0.566464 231.819 0.566464H240.092V30.1797H236.067V18.049H232.982L229.806 30.1797ZM229.985 11.6714C229.985 13.9905 230.969 14.7041 232.624 14.7041H236.067V4.17893H232.624C230.567 4.17893 229.985 5.42768 229.985 7.70219V11.6714Z" fill="#FEFEFE"/>
<path d="M14.2663 76.6363H10.286V62.7216H4.02497V76.6363H0V47.023H4.02497V59.1537H10.286V47.023H14.2663V76.6363Z" fill="#FEFEFE"/>
<path d="M32.0219 76.6363H28.0864L26.9236 69.6789H21.4675L20.3942 76.6363H16.5034L21.557 47.023H26.9683L32.0219 76.6363ZM24.1061 53.2668L22.0042 66.2449H26.3869L24.285 53.2668H24.1061Z" fill="#FEFEFE"/>
<path d="M45.6205 50.6801H38.2861V59.2429H42.5347C46.7385 59.2429 48.1696 61.2945 48.1696 65.2637V70.7047C48.1696 74.2726 46.7385 76.6363 42.5347 76.6363H34.2611V47.023H45.6205V50.6801ZM38.2861 73.0238H41.7297C43.8763 73.0238 44.3683 71.9089 44.3683 69.9911V65.9327C44.3683 63.5244 43.9211 62.7216 41.7297 62.7216H38.2861V73.0238Z" fill="#FEFEFE"/>
<path d="M66.7917 76.6363H62.8115V50.6355H57.4449L57.1318 59.5105C56.8635 66.9585 56.2374 71.8643 55.2088 74.1834C54.2696 76.2795 52.8832 76.6363 51.0049 76.6363H50.3788V72.9792H50.7813C51.5863 72.9792 52.123 72.8454 52.5255 71.7751C53.0174 70.4371 53.5093 66.9585 53.7777 59.5105L54.2249 47.023H66.7917V76.6363Z" fill="#FEFEFE"/>
<path d="M73.7264 76.6363H69.7015V47.023H73.7264V59.1537H77.3042V54.3817C77.3042 49.5651 79.8533 46.7554 84.3255 46.7554C88.7977 46.7554 91.3468 49.6543 91.3468 54.4709V69.5005C91.3468 74.451 88.8424 76.9039 84.3702 76.9039C79.7639 76.9039 77.3042 74.228 77.3042 69.4114V62.7216H73.7264V76.6363ZM87.4113 69.7235V54.1141C87.4113 51.795 86.2933 50.5017 84.3255 50.5017C82.3577 50.5017 81.2397 51.7504 81.2397 54.0695V69.6789C81.2397 71.9981 82.313 73.2022 84.3702 73.2022C86.338 73.2022 87.4113 72.0872 87.4113 69.7235Z" fill="#FEFEFE"/>
<path d="M111.056 84.0842H108.014V76.6363H95.6712V84.0842H92.6301V72.9792H93.1668C93.6588 72.9792 93.9718 72.9346 94.2401 72.7562C95.3582 71.9089 95.8501 69.7235 96.2079 59.5105L96.6551 47.023H109.222V72.9792H111.056V84.0842ZM105.242 72.9792V50.6355H99.8751L99.562 59.5105C99.3831 64.238 99.0701 70.5263 97.9968 72.9792H105.242Z" fill="#FEFEFE"/>
<path d="M128.287 76.6363H124.352L123.189 69.6789H117.733L116.66 76.6363H112.769L117.823 47.023H123.234L128.287 76.6363ZM120.372 53.2668L118.27 66.2449H122.652L120.551 53.2668H120.372Z" fill="#FEFEFE"/>
<path d="M135.794 76.6363H131.814V50.6355H126.85V47.023H140.848V50.6355H135.794V76.6363Z" fill="#FEFEFE"/>
<path d="M154.381 76.6363H143.29V47.023H154.023V50.6355H147.225V59.2875H153.442V62.9446H147.225V73.0238H154.381V76.6363Z" fill="#FEFEFE"/>
<path d="M172.851 76.6363H168.87V50.6355H163.504L163.191 59.5105C162.922 66.9585 162.296 71.8643 161.268 74.1834C160.329 76.2795 158.942 76.6363 157.064 76.6363H156.438V72.9792H156.84C157.645 72.9792 158.182 72.8454 158.584 71.7751C159.076 70.4371 159.568 66.9585 159.837 59.5105L160.284 47.023H172.851V76.6363Z" fill="#FEFEFE"/>
<path d="M179.785 47.023V59.2429H184.034C188.238 59.2429 189.669 61.0269 189.669 65.0853V70.7047C189.669 74.2726 188.238 76.6363 184.034 76.6363H175.76V47.023H179.785ZM179.785 73.0238H183.229C185.376 73.0238 185.868 71.9089 185.868 69.9911V65.9327C185.868 63.5244 185.42 62.7216 183.229 62.7216H179.785V73.0238Z" fill="#FEFEFE"/>
<path d="M206.502 76.6363H202.522V62.7216H196.261V76.6363H192.236V47.023H196.261V59.1537H202.522V47.023H206.502V76.6363Z" fill="#FEFEFE"/>
<path d="M224.258 76.6363H220.322L219.159 69.6789H213.703L212.63 76.6363H208.739L213.793 47.023H219.204L224.258 76.6363ZM216.342 53.2668L214.24 66.2449H218.623L216.521 53.2668H216.342Z" fill="#FEFEFE"/>
<path d="M229.806 76.6363H225.737L229.225 64.1488C226.676 63.3014 226.229 60.8931 226.229 57.7266V54.1587C226.229 49.7881 226.989 47.023 231.819 47.023H240.092V76.6363H236.067V64.5055H232.982L229.806 76.6363ZM229.985 58.128C229.985 60.4471 230.969 61.1607 232.624 61.1607H236.067V50.6355H232.624C230.567 50.6355 229.985 51.8842 229.985 54.1587V58.128Z" fill="#FEFEFE"/>
<path d="M121.705 123.093H117.636L113.387 110.293H113.208L111.061 114.485V123.093H106.992V93.4796H111.061V106.77H111.24L117.68 93.4796H121.75L116.16 105.209L121.705 123.093Z" fill="#FEFEFE"/>
<path d="M135.957 100.927V115.957C135.957 120.908 133.453 123.36 128.981 123.36C124.374 123.36 121.87 120.685 121.87 115.868V100.838C121.87 96.0217 124.464 93.212 128.936 93.212C133.408 93.212 135.957 96.1109 135.957 100.927ZM132.022 116.18V100.571C132.022 98.2516 130.904 96.9582 128.891 96.9582C126.968 96.9582 125.85 98.207 125.85 100.526V116.135C125.85 118.455 126.923 119.659 128.936 119.659C130.904 119.659 132.022 118.544 132.022 116.18Z" fill="#FEFEFE"/>
<path d="M158.779 123.093H155.201V106.725C155.201 104.897 155.246 102.756 155.335 100.303H155.157L150.148 123.093H146.436L141.427 100.303H141.248C141.337 102.756 141.382 104.897 141.382 106.725V123.093H137.804V93.4796H143.887L148.269 115.199H148.448L152.831 93.4796H158.779V123.093Z" fill="#FEFEFE"/>
<path d="M175.838 123.093H171.992V101.73H171.813L164.925 123.093H160.766V93.4796H164.657V113.46H164.836L171.544 93.4796H175.838V123.093Z" fill="#FEFEFE"/>
<path d="M187.85 116.18V111.007H191.651V115.957C191.651 120.908 189.281 123.36 184.809 123.36C180.203 123.36 177.832 120.685 177.832 115.868V100.615C177.832 95.6649 180.203 93.212 184.675 93.212C189.192 93.212 191.651 95.6649 191.651 100.571V104.094H187.85V100.571C187.85 98.2516 186.821 96.9582 184.809 96.9582C182.841 96.9582 181.813 98.207 181.813 100.526V116.18C181.813 118.455 182.707 119.659 184.809 119.659C186.821 119.659 187.85 118.544 187.85 116.18Z" fill="#FEFEFE"/>
<path d="M203.649 116.18V111.007H207.451V115.957C207.451 120.908 205.08 123.36 200.608 123.36C196.002 123.36 193.632 120.685 193.632 115.868V100.615C193.632 95.6649 196.002 93.212 200.474 93.212C204.991 93.212 207.451 95.6649 207.451 100.571V104.094H203.649V100.571C203.649 98.2516 202.621 96.9582 200.608 96.9582C198.641 96.9582 197.612 98.207 197.612 100.526V116.18C197.612 118.455 198.506 119.659 200.608 119.659C202.621 119.659 203.649 118.544 203.649 116.18Z" fill="#FEFEFE"/>
<path d="M224.502 123.093H220.656V101.73H220.477L213.59 123.093H209.431V93.4796H213.322V113.46H213.501L220.209 93.4796H224.502V123.093Z" fill="#FEFEFE"/>
<path d="M229.806 123.093H225.737L229.225 110.605C226.676 109.758 226.229 107.35 226.229 104.183V100.615C226.229 96.2447 226.989 93.4796 231.819 93.4796H240.092V123.093H236.067V110.962H232.982L229.806 123.093ZM229.985 104.585C229.985 106.904 230.969 107.617 232.624 107.617H236.067V97.092H232.624C230.567 97.092 229.985 98.3408 229.985 100.615V104.585Z" fill="#FEFEFE"/>
<path d="M290.698 100.469V104.483H272.234C270.171 104.483 267.756 104.433 264.989 104.332V104.533L290.698 110.152V114.317L264.989 119.936V120.137C267.756 120.036 270.171 119.986 272.234 119.986H290.698V124H257.291V117.176L281.793 112.26V112.059L257.291 107.142V100.469H290.698Z" fill="#EE0304"/>
<path d="M265.693 81.632H282.648C288.233 81.632 291 84.4417 291 89.459C291 94.6268 287.981 97.4365 282.548 97.4365H265.592C260.159 97.4365 256.989 94.5265 256.989 89.5091C256.989 84.4918 260.259 81.632 265.693 81.632ZM282.9 86.0472H265.29C262.674 86.0472 261.215 87.3015 261.215 89.5593C261.215 91.7168 262.624 92.9711 265.24 92.9711H282.849C285.466 92.9711 286.824 91.7669 286.824 89.5091C286.824 87.3015 285.566 86.0472 282.9 86.0472Z" fill="#EE0304"/>
<path d="M282.9 67.3174H277.064V63.0527H282.648C288.233 63.0527 291 65.7118 291 70.7291C291 75.897 287.981 78.5561 282.548 78.5561H265.341C259.756 78.5561 256.989 75.897 256.989 70.8797C256.989 65.8122 259.756 63.0527 265.29 63.0527H269.265V67.3174H265.29C262.674 67.3174 261.215 68.4713 261.215 70.7291C261.215 72.9367 262.624 74.0907 265.24 74.0907H282.9C285.466 74.0907 286.824 73.0873 286.824 70.7291C286.824 68.4713 285.566 67.3174 282.9 67.3174Z" fill="#EE0304"/>
<path d="M290.698 43.3205V47.8863L276.259 52.6527V52.8534L280.988 55.2617H290.698V59.8275H257.291V55.2617H272.284V55.061L257.291 47.8361V43.2703L270.523 49.542L290.698 43.3205Z" fill="#EE0304"/>
<path d="M290.698 31.1202V40.8538H257.291V31.7725C257.291 27.1566 259.756 25.4507 263.982 25.4507H267.404C270.473 25.4507 272.334 26.5043 272.888 28.8123H273.089C273.542 26.3036 275.051 24.9991 278.623 24.9991H284.963C288.786 24.9991 290.698 26.6548 290.698 31.1202ZM283.554 29.4645H278.321C276.007 29.4645 275.051 30.3676 275.051 32.6254V36.4386H286.774V32.4749C286.774 30.3676 285.717 29.4645 283.554 29.4645ZM267.856 29.6652H264.636C262.372 29.6652 261.215 30.3676 261.215 32.6254V36.4386H271.278V32.5753C271.278 30.8192 270.422 29.6652 267.856 29.6652Z" fill="#EE0304"/>
<path d="M290.698 0V4.51558H257.291V0H290.698ZM257.291 17.5606H271.076V12.7941C271.076 8.07786 273.089 6.47233 277.667 6.47233H284.007C288.032 6.47233 290.698 8.07786 290.698 12.7941V22.0762H257.291V17.5606ZM286.623 17.5606V13.6972C286.623 11.2889 285.365 10.737 283.202 10.737H278.623C275.906 10.737 275.001 11.2388 275.001 13.6972V17.5606H286.623Z" fill="#EE0304"/>
</svg>
