<svg width="332" height="135" viewBox="0 0 332 135" fill="none" xmlns="http://www.w3.org/2000/svg">
<path d="M129.529 24.556C137.353 25.4388 141.772 32.6047 148.911 31.4046C153.156 30.6907 157.367 29.7713 161.602 29.0004C166.075 28.1867 166.967 26.4395 162.971 23.541C157.03 19.2309 154.864 13.6637 158.057 6.81106C160.656 1.23374 165.536 -0.710817 171.385 0.22484C177.441 1.19304 180.806 5.18585 181.414 11.1924C182.241 19.3895 177.193 23.3824 169.41 25.9351C181.135 32.5966 192.196 33.2678 204.55 25.695C202.893 35.2876 197.926 40.4947 191.954 43.5986C184.712 47.3616 184.374 51.8385 186.089 58.9943C190.104 75.7344 181.62 84.6414 164.634 82.4548C150.062 80.5795 144.995 73.9038 149.645 59.814C152.475 51.2426 151.455 46.4707 143.438 42.1952C136.964 38.7393 134.219 31.429 129.529 24.556Z" fill="#FE5F09"/>
<path d="M315.087 109.326C317.364 104.318 319.107 101.066 320.34 97.6243C321.869 93.3549 325.112 93.6294 328.473 93.8939C332.71 94.2274 331.515 97.5918 331.559 100.01C331.688 107.097 331.543 114.189 331.623 121.276C331.658 124.341 331.168 126.438 327.375 126.465C323.226 126.493 323.508 123.804 323.51 121.065C323.512 117.361 323.51 113.655 323.51 108.494C318.716 113.612 315.472 126.786 308.545 111.458C305.461 115.31 307.048 119.089 306.679 122.547C306.439 124.807 305.98 126.335 303.308 126.434C300.416 126.544 299.033 125.566 299.073 122.442C299.171 114.678 299.045 106.914 299.119 99.1498C299.139 96.9653 298.404 94.022 302.011 93.9224C304.877 93.843 308.138 92.9114 309.705 96.7517C311.227 100.476 312.866 104.152 315.087 109.326Z" fill="#364455"/>
<path d="M83.7549 94.0974C94.8582 90.9162 97.141 96.6847 95.4133 105.685C93.838 113.891 98.7623 121.026 98.4437 128.93C98.3555 131.121 99.1652 133.944 95.756 134.489C92.4591 135.016 91.0121 133.747 90.9439 130.122C90.8377 124.423 86.0978 126.27 83.4743 126.642C79.7886 127.165 74.3031 123.152 72.6316 129.744C71.892 132.661 71.6074 135.03 67.9317 134.495C63.6548 133.875 65.0116 130.275 65.3403 128.165C67.0619 117.112 72.2287 106.975 73.305 95.5579C73.6617 91.7847 80.4079 94.7625 83.7549 94.0974ZM76.2351 119.494C85.8232 122.627 88.8135 118.789 87.4567 109.906C87.156 107.935 87.3825 105.879 87.4066 103.861C87.4326 101.644 87.0458 99.9269 84.2399 99.9981C81.7827 100.061 79.8808 100.124 79.4218 103.48C78.7023 108.769 77.3675 113.972 76.2351 119.494Z" fill="#364455"/>
<path d="M257.966 128.567C257.487 129.978 259.78 133.456 255.794 134.388C251.635 135.36 251.485 132.496 250.438 129.319C248.484 123.378 243.067 127.149 239.259 126.602C236.485 126.201 232.02 124.85 232.16 130.572C232.234 133.613 230.942 134.791 227.977 134.541C224.418 134.239 224.901 131.563 224.991 129.34C225.131 125.827 224.556 122.54 227.298 119.068C230.807 114.623 231.859 108.407 231.579 102.771C231.182 94.8443 234.449 93.4022 241.486 93.6544C255.441 94.1568 255.445 93.7459 255.469 108.303C255.475 111.672 254.667 115.435 255.88 118.301C257.201 121.429 258.642 124.234 257.966 128.567ZM235.968 119.391C247.857 121.035 249.254 119.143 247.398 104.598C247.079 102.102 247.043 100.041 243.748 99.9782C240.95 99.9253 239.772 100.822 239.335 103.804C238.616 108.727 237.267 113.555 235.968 119.391Z" fill="#364455"/>
<path d="M42.6568 109.507C45.1821 105.303 47.8757 101.19 50.1785 96.8618C52.0164 93.4059 54.9365 93.587 57.8967 93.945C62.0154 94.4433 60.6786 97.8971 60.7367 100.295C60.897 107.04 60.7668 113.793 60.8028 120.542C60.8209 123.735 60.9171 126.628 56.3114 126.479C52.0966 126.343 52.6517 123.506 52.6137 120.878C52.5636 117.338 52.6016 113.797 52.6016 110.258C51.7999 110.046 50.9963 109.833 50.1946 109.621C47.7715 113.801 45.126 117.867 42.9975 122.196C41.2238 125.804 38.6343 127.149 34.9787 126.3C31.0284 125.383 32.72 121.95 32.6398 119.61C32.4113 112.87 32.5436 106.115 32.5717 99.3656C32.5817 96.7132 32.1027 93.9083 36.2754 93.7822C40.841 93.6439 40.827 96.5038 40.7648 99.7277C40.7067 102.742 40.7528 105.759 40.7528 108.775C41.3861 109.017 42.0215 109.261 42.6568 109.507Z" fill="#364455"/>
<path d="M163.563 108.08C155.699 121.177 155.148 121.232 147.9 110.69C146.091 114.223 147.125 117.906 147.023 121.429C146.928 124.645 146.181 126.553 142.533 126.431C138.847 126.307 139.399 123.689 139.383 121.433C139.331 113.997 139.296 106.558 139.401 99.122C139.431 96.9984 138.491 93.9067 142.227 93.9169C145.024 93.925 148.291 92.7799 149.819 96.8296C151.119 100.281 152.867 103.562 154.536 107.177C158.683 105.476 159.072 101.394 160.184 98.1965C161.844 93.4287 165.263 93.4735 168.965 93.9108C173.27 94.4193 171.466 98.0114 171.554 100.277C171.803 106.691 171.749 113.122 171.592 119.542C171.52 122.538 173.123 126.677 167.323 126.48C162.223 126.307 163.744 122.678 163.605 119.991C163.427 116.454 163.563 112.903 163.563 108.08Z" fill="#364455"/>
<path d="M121.754 108.832C119.077 113.413 116.191 117.884 113.792 122.611C112.136 125.875 109.799 126.746 106.51 126.378C102.161 125.892 103.733 122.479 103.666 120.178C103.472 113.443 103.566 106.7 103.612 99.9597C103.632 97.0327 102.863 93.7457 107.743 93.7782C112.751 93.8108 111.545 97.2991 111.657 100.078C111.777 103.049 111.683 106.029 111.683 110.549C116.644 106.648 118.475 101.977 120.696 97.8768C122.688 94.1972 125.368 93.3287 128.875 93.9105C133.543 94.6854 131.513 98.6091 131.625 101.15C131.92 107.876 131.685 114.625 131.735 121.366C131.757 124.293 131.619 126.599 127.611 126.486C123.644 126.372 123.594 123.99 123.628 121.132C123.676 117.164 123.64 113.195 123.64 109.227C123.009 109.095 122.382 108.962 121.754 108.832Z" fill="#364455"/>
<path d="M273.519 109.681C276.046 105.47 278.776 101.369 281.036 97.0166C282.84 93.5485 285.688 93.7174 288.694 93.8943C293.096 94.1526 291.607 97.6594 291.665 99.9843C291.839 107.071 291.687 114.164 291.741 121.254C291.763 124.204 291.565 126.471 287.614 126.486C283.544 126.5 283.614 124.029 283.636 121.203C283.668 116.96 283.644 112.717 283.644 105.352C279.145 113.067 276.09 118.091 273.26 123.239C271.721 126.042 269.498 126.661 266.622 126.408C262.223 126.022 263.73 122.601 263.668 120.282C263.484 113.535 263.534 106.778 263.638 100.027C263.682 97.2444 262.558 93.7255 267.604 93.7804C272.461 93.8333 271.627 97.1224 271.679 100.035C271.733 103.066 271.691 106.097 271.691 109.127C272.298 109.31 272.909 109.495 273.519 109.681Z" fill="#364455"/>
<path d="M199.475 109.815C199.475 92.733 201.341 91.1301 217.813 93.8008C219.841 94.1304 221.817 93.988 221.703 96.9862C221.593 99.8948 219.665 99.9538 217.623 99.9762C215.961 99.9945 214.296 99.905 212.64 100.017C210.504 100.161 207.618 99.2582 207.646 103.041C207.674 106.833 210.642 105.556 212.684 106.076C215.406 106.77 220.559 103.751 220.194 109.382C219.861 114.503 214.941 111.859 212.119 112.058C208.766 112.296 207.411 113.279 207.53 116.804C207.65 120.376 209.852 120.276 212.253 120.26C213.915 120.249 215.576 120.223 217.236 120.286C219.134 120.359 221.35 119.906 221.649 122.881C222.014 126.51 219.577 126.415 217.188 126.423C216.855 126.425 216.522 126.408 216.192 126.433C199.475 127.602 199.475 127.602 199.475 109.815Z" fill="#364455"/>
<path d="M26.5587 116.635C28.2161 126.182 21.8267 126.178 16.2631 126.349C6.53467 126.65 0.682421 120.642 0.508056 110.772C0.331686 100.741 5.78711 94.069 15.1147 93.9591C20.7024 93.894 27.9776 92.9055 26.6749 103.655C21.0772 101.438 15.3772 96.7275 10.5251 103.308C7.51274 107.39 7.23415 112.436 10.2605 116.637C15.1247 123.385 20.8587 119.273 26.5587 116.635Z" fill="#364455"/>
<path d="M185.526 109.949C188.155 111.198 193.112 107.603 193.412 112.939C193.733 118.646 188.614 116.051 186.001 116.061C183.261 116.071 178.351 118.557 178.05 113.421C177.726 107.827 182.894 111.082 185.526 109.949Z" fill="#364455"/>
</svg>
