<svg width="269" height="240" viewBox="0 0 269 240" fill="none" xmlns="http://www.w3.org/2000/svg">
<path d="M81.8709 53.1087C85.3776 55.9393 88.2332 57.6351 92.1125 56.2384C94.1184 55.5166 95.976 56.7267 96.7224 58.8221C97.1127 59.9166 98.1077 59.7932 98.6298 60.2772C101.876 63.2865 107.748 62.2053 109.567 67.3459C109.791 67.9801 110.587 68.7937 110.402 69.1324C108.33 72.9231 111.691 75.3055 112.68 78.2686C113.798 81.6153 115.088 84.905 116.33 88.2098C118.23 93.2628 122.146 96.2143 126.872 98.348C128.823 99.2291 129.436 98.3541 129.315 96.5865C129.238 95.4597 128.902 94.3524 128.703 93.2324C128.022 89.3937 130.313 86.5698 134.223 86.4312C138.018 86.2962 141.683 87.198 145.375 87.8681C145.92 87.9672 146.483 88.4494 146.957 88.3545C148.583 88.028 151.226 89.798 151.672 87.3269C152.149 84.6909 149.332 85.2783 147.682 84.911C146.945 84.7469 145.985 84.8867 145.897 83.7381C145.808 82.6047 146.625 82.5025 147.448 82.3596C148.055 82.2538 148.938 82.5846 149.108 81.6275C149.284 80.6418 148.397 80.2429 147.784 79.8088C147.364 79.5114 146.735 79.3959 146.2 79.3959C144.827 79.3971 143.074 79.7188 142.897 77.8879C142.728 76.1294 144.962 77.2324 145.787 76.3276C144.333 74.0595 141.306 75.7883 139.805 73.8449C140.396 73.0252 141.154 73.4788 141.772 73.3706C142.554 73.2338 143.021 72.979 143.094 72.1332C143.173 71.2217 142.931 70.7438 141.944 70.4057C137.006 68.7141 132.178 66.6624 127.177 65.1988C121.164 63.4391 115.659 60.9296 111.327 56.3217C109.301 54.1661 107.289 53.3319 104.506 54.9068C102.546 56.0159 100.342 56.1837 98.2056 55.3306C94.4983 53.8505 93.6887 50.0763 96.9297 46.4784C98.2293 45.0361 97.7138 44.9552 96.8105 44.2237C92.6565 40.8605 88.5007 37.4997 84.3625 34.1171C82.1645 32.3208 80.9525 27.3372 81.9852 24.8417C82.4429 23.735 83.3255 23.7228 84.2403 23.7204C88.9329 23.7088 93.6254 23.7496 98.3174 23.7028C100.132 23.6845 100.727 24.6039 100.715 26.2499C100.695 28.9972 100.757 31.7456 100.717 34.4929C100.691 36.1912 101.299 36.9744 103.131 36.902C106.102 36.7846 109.085 36.7688 112.055 36.905C113.982 36.9938 114.348 36.1194 114.288 34.4576C114.194 31.8277 114.31 29.1911 114.253 26.5588C114.21 24.5516 115.019 23.6505 117.102 23.6882C121.564 23.769 126.029 23.7624 130.491 23.6894C132.485 23.6566 133.54 24.3345 133.39 26.4585C133.325 27.37 133.38 28.2894 133.38 29.2057C133.382 36.8965 133.382 36.899 140.949 36.9975C141.749 37.0078 142.569 36.843 143.347 36.9671C146.534 37.4754 147.352 35.9388 147.093 33.0566C146.9 30.8986 147.132 28.7059 147.036 26.5351C146.947 24.5005 147.709 23.6347 149.821 23.6815C154.283 23.7806 158.749 23.7745 163.21 23.6827C165.146 23.6432 165.803 24.371 165.793 26.2882C165.709 41.6291 165.923 56.9754 165.565 72.3089C165.393 79.6306 161.55 85.6638 156.677 90.9844C155.998 91.7256 155.18 91.936 154.197 91.7712C149.301 90.9528 144.409 90.0997 139.497 89.3827C137.589 89.1043 135.634 89.1207 133.698 89.058C132.437 89.0173 131.519 89.5737 131.033 90.8014C130.516 92.1057 131.036 93.084 132.058 93.7651C135.4 95.9906 138.22 98.9549 141.987 100.593C143.899 101.424 144.567 102.51 142.53 104.302C137.208 108.985 132.017 113.82 126.847 118.673C124.913 120.488 123.046 120.685 121.12 118.898C110.743 109.268 100.192 99.8141 90.1157 89.8777C84.5752 84.4143 81.9906 77.2592 81.8831 69.3811C81.8138 64.2606 81.8709 59.1377 81.8709 53.1087ZM88.3712 33.7942L88.3512 33.779C89.7054 35.7546 91.7156 36.8588 94.2345 38.5407C94.2345 34.3615 94.2345 30.8256 94.2345 27.2891C94.5895 27.2861 94.9445 27.2836 95.2994 27.2806C95.2994 30.2619 95.5092 33.2627 95.2453 36.2204C94.9305 39.7587 96.6118 41.6419 99.8018 42.9693C99.8018 41.9447 100.115 40.7054 99.7519 40.458C97.0944 38.6435 98.2967 35.9814 98.0968 33.6641C97.9503 31.9663 97.994 30.2419 98.084 28.5357C98.1758 26.7875 97.5138 26.0572 95.7164 26.1204C92.9842 26.2165 90.2434 26.0852 87.5105 26.1727C86.4899 26.2055 84.8828 25.5513 84.6591 27.1572C84.4536 28.6305 83.858 30.4 85.3028 31.6556C86.2377 32.4698 87.3421 33.0888 88.3712 33.7942ZM157.647 27.263C157.956 27.263 158.265 27.2636 158.574 27.2636C158.574 32.7185 158.625 38.1747 158.545 43.629C158.52 45.3735 159.038 46.0904 160.876 46.0546C162.548 46.0217 163.448 45.652 163.361 43.7579C163.251 41.3585 163.339 38.95 163.339 36.5451C163.339 25.4607 163.341 25.499 152.16 26.09C150.434 26.1812 149.69 26.6288 149.757 28.4542C149.867 31.427 149.674 34.4126 149.814 37.383C149.95 40.2889 147.262 40.5546 146.162 40.0901C143.149 38.8156 140.264 41.204 137.302 39.7575C135.747 38.9974 136.128 41.2308 135.406 41.9751C134.547 41.4236 135.178 40.0676 133.831 39.665C130.511 38.6727 130.164 37.9619 130.364 34.7233C130.441 33.4713 130.863 31.7031 130.226 31.0512C128.724 29.5128 129.442 27.775 129.242 26.1301C125.864 26.1301 122.661 26.1198 119.458 26.1356C118.315 26.1411 117.06 26.017 117.069 27.7707C117.086 30.9193 117.074 34.0684 117.074 37.217C117.319 37.22 117.564 37.2231 117.809 37.2267C117.809 33.9134 117.809 30.6006 117.809 27.2873C118.088 27.2995 118.367 27.3116 118.646 27.3232C118.325 32.9374 119.098 38.5742 118.275 44.2243C116.907 42.8422 118.905 40.3674 116.412 39.7812C115.292 39.5179 113.285 38.8721 112.872 40.5838C112.486 42.1861 111.534 44.352 114.459 45.3419C118.991 46.8761 122.584 49.6811 124.971 54.0141C126.616 56.9991 128.694 59.7427 130.507 62.6389C131.342 63.9736 132.676 64.5622 133.978 64.3822C135.6 64.1578 134.862 62.5495 134.9 61.5395C134.994 59.0081 134.931 56.4713 134.931 53.9363C135.242 53.9381 135.553 53.9399 135.864 53.9418C135.864 57.2156 135.869 60.4894 135.862 63.7632C135.857 66.2557 137.97 66.4064 139.475 66.4904C141.304 66.5925 140.422 64.8018 140.5 63.8447C140.734 60.9187 140.273 57.9325 141.293 54.4282C141.578 67.3447 141.578 67.3447 145.935 70.6374C146.047 68.4459 146.153 66.3542 146.259 64.2624C146.872 65.8172 146.968 67.3611 147 68.9062C147.032 70.4045 147.605 71.2521 149.248 71.2521C150.861 71.2521 151.939 70.762 151.951 68.9603C151.964 67.0334 151.954 65.1058 151.954 63.1789C152.719 64.9678 152.718 66.7597 152.719 68.5517C152.72 70.34 153.412 71.2491 155.402 71.1913C157.362 71.1342 157.598 70.0682 157.594 68.5146C157.58 62.3318 157.59 56.1484 157.65 49.9656C157.666 48.3901 157.134 47.6319 155.468 47.7359C154.2 47.8149 152.845 47.5729 152.786 49.4786C152.765 50.1639 152.644 50.8455 152.569 51.529C152.179 51.1574 152.061 50.8327 152.066 50.5099C152.091 48.6127 151.492 47.599 149.276 47.6428C146.786 47.6915 146.904 49.2457 146.895 50.8802C146.88 53.5076 146.891 56.135 146.891 58.7619C146.24 55.9593 146.18 53.144 146.259 50.3329C146.324 47.9821 144.551 46.6572 143.187 47.8289C141.179 49.5534 140.233 47.5449 138.823 47.5267C138.577 47.5237 138.335 47.1923 137.478 46.5599C141.532 46.4693 144.774 45.0938 148.316 46.0005C150.483 46.555 152.035 46.0382 151.924 43.1121C151.732 38.0835 151.871 33.042 151.871 28.006C152.208 28.0072 152.546 28.0085 152.883 28.0097C152.883 33.0007 152.929 37.9916 152.858 42.9814C152.833 44.7521 152.812 46.0777 155.25 46.085C157.707 46.0923 157.672 44.6828 157.661 42.9668C157.626 37.7326 157.647 32.4978 157.647 27.263ZM118.63 102.184C118.63 103.379 118.625 104.573 118.632 105.767C118.644 107.936 118.48 110.126 118.733 112.267C118.979 114.347 120.812 115.66 122.422 116.352C123.535 116.83 123.176 114.885 123.559 113.775C123.805 115.037 123.705 116.263 124.9 117.033C126.495 115.298 129.087 114.24 129.379 111.688C129.7 108.884 129.818 105.895 129.17 103.192C128.644 100.994 125.741 100.932 123.93 99.8585C122.856 99.2224 121.772 98.5463 120.859 97.7071C119.195 96.1779 118.404 96.7561 117.982 98.9749C118.631 93.8611 113.645 91.5408 112.972 87.2132C112.562 90.5581 112.709 93.8216 112.513 97.0644C112.366 99.4894 112.8 101.225 115.927 101.303C114.64 102.345 113.003 101.382 112.587 103.301C111.696 107.416 114.499 109.353 117.222 111.91C118.312 108.534 117.184 105.209 118.63 102.184ZM105.623 81.1143C105.934 81.1167 106.247 81.1185 106.559 81.121C106.559 86.4817 106.558 91.843 106.559 97.2037C106.56 99.0716 106.385 100.961 109.205 100.965C112.233 100.969 111.589 98.7743 111.64 97.0887C111.747 93.5504 111.498 89.9902 111.793 86.472C112.131 82.4417 110.406 79.1436 108.575 75.8922C107.159 73.3749 104.525 73.4843 102.134 73.9556C99.9191 74.3922 100.977 76.3969 100.954 77.6641C100.859 82.8035 101.211 87.9605 100.924 93.084C100.729 96.5774 102.081 98.6709 105.623 100.388C105.623 93.7565 105.623 87.4351 105.623 81.1143ZM126.556 61.6082C124.838 57.5421 122.645 54.3017 119.934 51.6402C116.541 48.3093 113.021 45.0744 107.397 45.6265C103.874 45.9725 101.898 48.6814 98.8876 49.6665C95.9407 50.6302 97.385 51.9157 98.935 53.0358C100.003 53.8074 101.264 53.7569 102.168 53.1184C107.067 49.6525 110.734 51.5241 113.989 55.6127C114.199 55.876 114.456 56.1484 114.752 56.2889C118.562 58.0942 121.299 62.2844 126.556 61.6082ZM158.57 59.1267C158.585 59.1267 158.599 59.1267 158.614 59.1267C158.614 61.9804 158.529 64.8371 158.651 67.6852C158.709 69.0412 157.743 71.1317 160.578 71.0861C163.174 71.0442 163.372 69.4206 163.358 67.425C163.317 61.604 163.288 55.7824 163.379 49.9626C163.403 48.4485 163.242 47.6021 161.446 47.734C159.948 47.8441 158.44 47.517 158.539 49.8836C158.667 52.9597 158.57 56.0451 158.57 59.1267ZM99.972 95.2664C99.972 88.3551 100.013 81.8069 99.9501 75.2593C99.9276 72.9237 97.7132 73.0903 96.3778 72.9413C94.9049 72.7771 95.3973 74.4298 95.3766 75.3231C95.2849 79.3114 95.5274 83.3222 95.1973 87.2868C94.8922 90.9558 96.3249 93.3066 99.972 95.2664ZM94.3026 81.3454C94.257 81.3454 94.2114 81.3454 94.1652 81.3454C94.1652 79.1734 94.1293 77.0001 94.1774 74.8294C94.212 73.2447 93.5622 72.5984 91.9362 72.5856C90.3072 72.5728 89.6677 73.1912 89.6975 74.7959C89.7528 77.7681 89.7443 80.7422 89.7054 83.7144C89.675 86.039 91.2561 87.4449 92.6322 88.9334C93.64 90.023 94.2552 89.4636 94.2862 88.2068C94.3433 85.921 94.3026 83.6329 94.3026 81.3454ZM155.364 88.7029C156.457 87.5215 157.603 86.3552 157.565 84.4313C157.502 81.245 157.456 78.0551 157.548 74.8707C157.602 73.0191 156.773 72.5905 155.092 72.5412C153.102 72.4834 153.031 73.5172 152.906 75.0853C152.531 79.7778 152.883 84.3182 155.364 88.7029ZM129.915 112.091C132.666 109.851 135.589 108.401 134.97 104.52C134.733 103.034 134.638 101.916 132.682 101.888C130.729 101.859 129.964 102.769 129.928 104.514C129.879 106.899 129.915 109.285 129.915 112.091ZM163.325 72.4208C161.648 73.007 159.199 71.5215 158.829 73.8078C158.348 76.7788 158.234 79.9383 159.042 83.4566C161.455 79.8623 162.132 76.2091 163.325 72.4208ZM88.5469 81.6962C88.5469 79.7863 88.418 77.8648 88.5767 75.9683C88.821 73.0459 87.8004 71.935 84.8232 72.9772C85.5216 76.0801 86.0997 79.1655 88.5469 81.6962ZM84.4561 66.708C84.5011 67.7138 84.5685 68.6234 84.5764 69.5331C84.5862 70.717 85.2311 71.094 86.3173 71.08C87.4054 71.0667 88.3724 70.9979 88.5949 69.6158C88.8314 68.1492 88.373 66.9458 87.4363 65.844C86.7659 65.0559 86.7653 63.3303 85.1806 63.8398C83.6215 64.3421 84.7363 65.8081 84.4561 66.708ZM151.848 79.3491C151.848 77.5632 151.878 76.0929 151.837 74.625C151.811 73.6911 151.688 72.692 150.465 72.6209C149.575 72.5692 148.487 72.4208 147.818 72.841C146.627 73.5889 148.092 74.3569 148.14 75.148C148.268 77.2428 149.601 78.305 151.848 79.3491ZM100.962 42.2566C101.131 43.4533 100.558 45.2878 102.686 45.137C104.229 45.0276 105.878 44.5843 105.722 42.3515C105.613 40.8118 105.548 39.5495 103.345 39.5939C101.335 39.6352 100.709 40.3984 100.962 42.2566ZM111.481 41.8899C111.782 40.3327 111.003 39.5982 109.041 39.614C107.295 39.6279 106.608 40.2585 106.556 41.9733C106.482 44.4073 108.42 43.7257 109.661 44.0996C111.376 44.6159 111.565 43.5335 111.481 41.8899ZM84.788 58.0134C83.7516 60.3489 84.512 61.3018 86.4474 61.2677C88.384 61.2337 90.3248 61.0172 92.245 60.746C92.9544 60.6457 94.0795 60.4712 93.8564 59.4046C93.6394 58.3654 92.5733 58.6932 91.8317 58.7637C89.4246 58.9929 86.9695 60.608 84.788 58.0134ZM92.8486 67.3477C96.5857 68.4502 102.575 67.8311 105.556 65.8282C100.933 65.3867 96.9674 66.3061 92.8486 67.3477ZM98.5374 63.2032C95.6775 63.2312 92.752 62.9526 90.0884 64.4777C93.0492 65.2219 95.7936 64.2612 98.5374 63.2032ZM134.128 98.8771C132.986 97.8257 132.221 96.2818 130.474 96.4977C130.334 96.5147 130.091 97.8184 130.322 98.3322C131.168 100.215 132.729 99.1428 134.128 98.8771ZM100.414 70.1047C104.815 71.9866 105.957 71.7957 108.006 69.3884C105.303 69.6432 102.858 69.8742 100.414 70.1047ZM111.231 105.988C111.798 101.807 111.494 101.543 107.514 102.513C108.466 103.858 109.563 104.894 111.231 105.988ZM136.074 106.715C137.526 104.99 139.575 104.547 139.402 102.609C139.321 101.714 137.744 101.894 137.034 102.169C134.935 102.978 136.049 104.603 136.074 106.715Z" fill="white"/>
<path d="M145.004 163.914C145.004 165.514 144.914 167.122 145.032 168.713C145.136 170.111 144.197 172.006 146.808 172.405C147.584 172.523 147.677 178.352 146.955 178.89C146.651 179.117 146.078 179.2 145.715 179.081C145.08 178.874 145.007 178.19 145.12 177.649C145.879 174.009 143.525 174.175 141.124 174.281C139.527 174.352 137.92 174.374 136.326 174.277C133.671 174.115 131.183 173.999 131.903 177.929C132.041 178.682 131.614 179.247 130.72 179.191C129.813 179.134 129.576 178.458 129.651 177.758C129.884 175.569 129.274 173.566 131.224 171.309C134.109 167.97 135.121 163.322 135.569 158.863C135.887 155.704 137.133 154.423 140.27 155.076C140.818 155.19 141.42 155.164 141.98 155.08C144.36 154.723 145.288 155.647 145.044 158.088C144.85 160.012 145.004 161.97 145.004 163.914ZM142.54 165.008C142.536 165.008 142.533 165.008 142.53 165.008C142.53 163.071 142.522 161.134 142.532 159.197C142.538 158.048 142.3 157.138 140.851 157.243C139.683 157.327 138.348 156.817 138.051 158.784C137.437 162.852 136.176 166.757 134.486 170.506C133.963 171.666 134.164 172.022 135.476 172.211C141.831 173.124 142.54 172.578 142.54 166.375C142.54 165.919 142.54 165.464 142.54 165.008Z" fill="white"/>
<path d="M227.793 164.274C230.657 165.393 231.921 167.207 231.335 169.99C230.756 172.742 228.706 173.84 226.162 174.205C218.34 175.329 218.035 175.054 218.035 167.197C218.035 163.894 218.088 160.59 218.018 157.288C217.984 155.72 218.478 154.963 220.155 155.076C221.971 155.197 223.81 155.035 225.611 155.242C227.8 155.493 229.958 156.037 230.657 158.588C231.333 161.055 230.161 162.748 227.793 164.274ZM220.611 169.003C219.992 171.338 220.724 172.59 223.66 172.298C226.142 172.052 228.789 172.103 228.798 168.785C228.809 165.136 225.858 165.562 223.372 165.269C220.358 164.915 220.311 166.648 220.611 169.003ZM223.013 163.345C225.67 163.175 228.209 163.376 228.206 160.265C228.203 156.899 225.416 157.451 223.246 157.132C220.459 156.723 220.562 158.385 220.479 160.367C220.382 162.714 221.034 163.842 223.013 163.345Z" fill="white"/>
<path d="M0.0550697 164.49C0.0544618 162.204 -0.00328037 159.916 0.0830338 157.633C0.117073 156.742 -0.479224 155.253 1.09692 155.205C2.95815 155.149 2.30289 156.803 2.32295 157.774C2.40075 161.544 2.47552 165.321 2.3114 169.085C2.2105 171.396 2.81044 172.27 5.31294 172.247C11.9616 172.185 11.9628 172.309 11.9628 165.605C11.9628 163.09 11.8746 160.571 12.0053 158.064C12.06 157.019 11.1853 155.105 13.2824 155.219C15.2135 155.324 14.3619 157.158 14.3984 158.224C14.5109 161.534 14.354 164.854 14.4774 168.165C14.5364 169.753 13.8337 171.353 16.1788 172.688C17.5829 173.487 16.8079 176.692 16.4116 178.809C16.3077 179.363 15.6609 179.238 15.2385 179.145C14.5334 178.99 14.4106 178.347 14.5133 177.81C15.2354 174.033 12.8673 174.147 10.2784 174.268C7.65619 174.39 5.01996 174.204 2.39832 174.325C0.644075 174.406 -0.0768335 173.882 0.0222455 172.031C0.157187 169.524 0.0562854 167.004 0.0550697 164.49Z" fill="white"/>
<path d="M119.016 154.9C124.601 154.912 127.897 158.617 127.838 164.817C127.781 170.841 124.529 174.432 119.088 174.476C113.404 174.523 110.15 170.985 110.121 164.724C110.092 158.493 113.357 154.888 119.016 154.9ZM112.732 164.75C112.75 169.814 114.831 172.366 118.957 172.383C123.204 172.4 125.276 169.782 125.22 164.468C125.167 159.418 123.055 156.947 118.851 157.018C114.765 157.086 112.713 159.679 112.732 164.75Z" fill="white"/>
<path d="M168.423 169.943C171.239 165.716 174.053 161.488 176.871 157.263C177.619 156.141 178.226 154.626 179.962 155.164C181.69 155.699 180.851 157.302 180.876 158.397C180.978 162.975 180.938 167.557 180.896 172.137C180.888 172.945 181.286 174.166 179.85 174.224C178.33 174.286 178.757 173.024 178.749 172.225C178.705 168.045 178.729 163.864 178.089 159.463C175.279 163.695 172.464 167.925 169.663 172.162C168.908 173.302 168.274 174.748 166.552 174.233C164.776 173.703 165.681 172.1 165.653 171.023C165.539 166.559 165.57 162.091 165.636 157.626C165.649 156.745 165.05 155.259 166.65 155.202C168.283 155.144 167.745 156.64 167.758 157.521C167.819 161.587 167.785 165.655 167.785 169.722C167.997 169.796 168.21 169.869 168.423 169.943Z" fill="white"/>
<path d="M238.486 169.931C241.311 165.693 244.14 161.457 246.961 157.217C247.715 156.084 248.354 154.59 250.072 155.183C251.73 155.755 250.914 157.345 250.938 158.452C251.036 163.03 250.997 167.612 250.958 172.193C250.951 173.009 251.312 174.241 249.856 174.229C248.379 174.217 248.818 172.97 248.809 172.169C248.764 168.051 248.788 163.932 248.788 159.472C247.155 160.194 246.732 161.672 245.973 162.78C243.645 166.179 241.37 169.615 239.141 173.079C238.485 174.097 237.656 174.478 236.551 174.246C235.192 173.961 235.7 172.798 235.692 172.002C235.643 167.078 235.648 162.153 235.688 157.229C235.695 156.418 235.315 155.169 236.76 155.169C238.21 155.17 237.816 156.421 237.824 157.231C237.868 161.35 237.844 165.471 237.844 169.591C238.058 169.704 238.272 169.817 238.486 169.931Z" fill="white"/>
<path d="M254.472 173.927C255.34 172.549 256.168 171.198 257.032 169.872C258.357 167.838 260.024 166.31 256.845 163.863C253.986 161.662 255.679 156.903 259.215 155.657C261.654 154.798 264.183 155.173 266.68 155.105C267.987 155.069 268.102 155.935 268.101 156.92C268.095 162.169 268.099 167.418 268.093 172.667C268.092 173.497 268.055 174.324 266.868 174.244C265.675 174.163 265.835 173.24 265.809 172.481C265.77 171.342 265.848 170.196 265.776 169.06C265.71 168.019 266.263 166.608 264.526 166.353C263.109 166.145 261.857 166.268 261.038 167.78C260.118 169.482 258.937 171.041 257.993 172.73C257.202 174.146 256.218 174.709 254.472 173.927ZM265.778 160.92C265.768 158.898 266.361 156.795 263.29 157.131C260.885 157.395 258.213 157.236 258.242 160.7C258.268 163.824 260.643 164.029 263.015 164.293C266.125 164.639 265.915 162.65 265.778 160.92Z" fill="white"/>
<path d="M49.5397 164.7C49.5421 167.211 49.5719 169.722 49.5251 172.232C49.5099 173.046 49.891 174.184 48.4176 174.251C47.0123 174.315 47.1138 173.304 47.0737 172.39C47.0688 172.276 47.0749 172.161 47.0682 172.047C46.647 165.001 46.6488 165.069 39.5467 165.303C37.7651 165.361 37.091 165.85 37.2278 167.652C37.3566 169.354 37.2576 171.074 37.2387 172.785C37.2308 173.473 37.2053 174.176 36.2473 174.243C35.1277 174.321 34.9198 173.608 34.9198 172.725C34.9179 167.362 34.9161 161.998 34.9283 156.634C34.9301 155.751 35.1909 155.043 36.2984 155.16C37.2551 155.262 37.1931 156.003 37.2424 156.674C37.2509 156.787 37.2393 156.903 37.2521 157.016C37.4818 159.012 36.2862 161.798 37.8678 162.82C39.4203 163.824 42.0468 163.084 44.1858 163.285C46.3929 163.492 47.36 162.741 47.0907 160.441C46.9454 159.203 47.0694 157.933 47.0852 156.678C47.0962 155.8 47.2955 155.098 48.4158 155.133C49.626 155.172 49.5251 156.047 49.5306 156.826C49.5482 159.45 49.5373 162.075 49.5397 164.7Z" fill="white"/>
<path d="M69.6728 164.56C69.6728 162.276 69.7992 159.983 69.6363 157.71C69.4807 155.533 70.3827 154.862 72.4099 155.073C73.7678 155.213 75.1598 155.05 76.5116 155.222C80.1216 155.679 81.8844 157.51 81.9233 160.672C81.9634 163.908 79.9697 166.69 76.542 166.516C72.0306 166.288 71.8555 168.561 72.1303 171.839C72.2026 172.699 72.7126 174.134 71.0659 174.224C69.1433 174.33 69.7299 172.751 69.6977 171.755C69.6211 169.358 69.6728 166.958 69.6728 164.56ZM72.1248 161.042C72.5254 162.518 71.069 165.003 74.4164 164.738C76.9535 164.537 79.36 164.216 79.4147 160.985C79.47 157.729 77.0763 157.346 74.5319 157.138C70.9699 156.846 72.571 159.524 72.1248 161.042Z" fill="white"/>
<path d="M150.586 164.516C150.586 163.714 150.526 162.908 150.597 162.113C150.799 159.871 149.499 156.571 151.149 155.609C153.685 154.13 157.142 155.184 160.208 155.146C160.864 155.138 161.265 155.53 161.234 156.224C161.201 156.965 160.648 157.141 160.056 157.157C158.799 157.193 157.521 157.319 156.284 157.16C153.734 156.832 152.935 157.768 152.944 160.374C152.954 162.959 153.992 163.343 156.213 163.34C157.713 163.338 160.513 162.307 160.531 164.245C160.55 166.363 157.734 165.334 156.31 165.233C153.417 165.029 152.974 166.262 152.953 168.782C152.932 171.391 153.566 172.449 156.374 172.295C157.953 172.208 160.987 171.123 160.991 173.238C160.995 175.395 158.005 174.185 156.396 174.23C150.588 174.394 150.585 174.295 150.585 168.636C150.586 167.262 150.586 165.889 150.586 164.516Z" fill="white"/>
<path d="M19.9722 164.649C19.9722 164.078 19.9722 163.506 19.9722 162.935C19.9722 154.518 19.9728 154.513 28.4109 155.102C29.24 155.16 30.5013 154.781 30.4174 156.221C30.336 157.619 29.0722 157.08 28.2693 157.168C27.4791 157.254 26.6725 157.186 25.8731 157.189C22.4333 157.204 21.3745 158.697 22.2923 162.046C22.8126 163.945 24.3207 162.935 25.3777 163.273C26.9241 163.767 29.7846 161.983 29.832 164.44C29.8661 166.212 26.9119 165.382 25.4294 165.239C22.3172 164.939 22.2613 166.561 22.2072 168.894C22.1519 171.294 22.606 172.638 25.3583 172.225C26.4749 172.058 27.6389 172.18 28.7799 172.212C29.5494 172.233 30.5317 172.086 30.4545 173.321C30.3791 174.531 29.3658 174.192 28.637 174.288C28.5246 174.303 28.4085 174.287 28.2948 174.293C19.9722 174.729 19.9722 174.729 19.9722 164.649Z" fill="white"/>
<path d="M195.95 172.287C196.787 172.658 198.488 171.078 198.652 172.89C198.808 174.631 196.894 174.278 195.751 174.392C192.047 174.762 188.48 174.315 186.597 170.611C184.508 166.5 184.421 162.181 187.11 158.264C189.591 154.65 193.422 154.587 197.283 155.184C198.066 155.305 199.395 155.332 199.216 156.588C198.992 158.154 197.845 157.55 196.827 157.331C193.604 156.636 190.65 156.911 188.791 160.141C187.129 163.029 187.409 167.813 189.325 170.227C191.037 172.387 193.391 172.502 195.95 172.287Z" fill="white"/>
<path d="M103.834 172.293C104.7 172.622 106.361 171.125 106.592 172.826C106.837 174.629 104.908 174.269 103.782 174.385C99.9438 174.78 96.2931 174.286 94.4264 170.376C92.5026 166.346 92.4321 162.133 95.0227 158.32C97.4894 154.69 101.308 154.578 105.171 155.178C105.994 155.306 107.541 155.236 107.107 156.842C106.754 158.153 105.735 157.535 104.857 157.345C101.784 156.679 98.9148 156.829 96.9624 159.787C95.1777 162.491 95.2537 167.256 97.0481 169.888C98.7032 172.314 101.139 172.519 103.834 172.293Z" fill="white"/>
<path d="M58.4687 165.784C58.4687 164.526 58.3417 163.251 58.493 162.011C58.8972 158.691 58.3727 156.358 54.1633 157.15C53.4528 157.283 52.3975 157.301 52.4984 156.056C52.5939 154.869 53.6108 155.115 54.3451 155.108C57.8913 155.078 61.4374 155.082 64.9836 155.108C65.7294 155.113 66.7385 154.904 66.7178 156.159C66.6971 157.395 65.6541 157.284 64.9605 157.153C60.8952 156.383 60.5293 158.652 60.742 161.843C60.9548 165.033 60.8496 168.25 60.7512 171.451C60.7214 172.427 61.4575 174.084 59.6911 174.181C57.7897 174.285 58.5611 172.574 58.504 171.617C58.3866 169.679 58.4687 167.729 58.4687 165.784Z" fill="white"/>
<path d="M206.833 165.762C206.832 164.503 206.694 163.225 206.858 161.989C207.307 158.607 206.642 156.397 202.504 157.15C201.788 157.28 200.763 157.291 200.858 156.033C200.93 155.076 201.722 155.113 202.386 155.11C206.161 155.093 209.936 155.097 213.712 155.108C214.422 155.11 215.122 155.2 215.089 156.18C215.056 157.16 214.289 157.284 213.644 157.152C208.743 156.148 208.978 159.268 209.121 162.55C209.261 165.748 209.174 168.958 209.129 172.161C209.118 172.986 209.453 174.158 208.035 174.231C206.545 174.308 206.865 173.12 206.849 172.284C206.806 170.111 206.835 167.936 206.833 165.762Z" fill="white"/>
<path d="M174.398 203.661C173.261 200.741 173.252 197.918 173.721 194.851C174.782 195.291 174.518 196.016 174.616 196.575C174.74 197.279 174.296 198.271 175.552 198.401C176.583 198.508 176.894 197.8 177.212 197.025C178.156 194.724 179.926 194.057 182.199 194.733C184.64 195.46 185.012 197.461 184.945 199.639C184.883 201.642 184.11 203.279 182.038 203.75C179.795 204.26 177.969 203.594 177.158 201.188C176.859 200.3 176.569 199.349 175.327 199.691C174.21 199.999 174.754 200.998 174.626 201.704C174.509 202.348 174.471 203.007 174.398 203.661ZM183.739 199.032C183.649 197.334 183.367 195.48 180.807 195.571C178.531 195.653 178.096 197.331 178.065 199.166C178.032 201.189 178.646 202.953 181.029 202.906C183.236 202.863 183.704 201.14 183.739 199.032Z" fill="white"/>
<path d="M120.391 199.478C120.419 196.836 119.488 193.797 123.83 194.667C125.797 195.061 127.159 195.707 126.125 198.014C125.887 198.545 125.539 198.927 126.014 199.495C127.037 200.717 127.135 202.014 125.87 203.073C124.538 204.188 122.693 204.241 121.333 203.685C119.284 202.846 120.9 200.674 120.391 199.478ZM123.409 202.851C124.516 202.751 125.529 202.418 125.494 201.096C125.457 199.714 124.34 199.639 123.272 199.549C121.83 199.428 121.561 200.199 121.609 201.43C121.658 202.693 122.346 202.962 123.409 202.851Z" fill="white"/>
<path d="M157.619 237.162C158.616 234.654 159.299 232.972 159.953 231.278C160.245 230.521 160.491 229.65 161.522 229.847C162.422 230.019 162.233 230.882 162.239 231.524C162.263 233.879 162.249 236.236 162.249 239.307C160.294 237.13 161.717 234.886 160.508 232.854C159.555 235.073 158.739 236.973 157.796 239.169C155.923 237.12 155.954 234.626 154.272 232.315C154.116 234.673 153.99 236.558 153.864 238.443C152.671 236.079 153.217 233.633 153.103 231.239C153.076 230.681 153.151 230.03 153.859 229.904C154.715 229.751 155.032 230.42 155.283 231.061C155.978 232.838 156.65 234.625 157.619 237.162Z" fill="white"/>
<path d="M223.052 221.392C222.939 219.419 222.826 217.446 222.661 214.563C220.997 217.026 219.822 218.787 218.62 220.53C218.245 221.074 217.898 221.797 217.041 221.507C216.309 221.26 216.573 220.551 216.565 220.039C216.531 217.706 216.55 215.373 216.886 213.018C218.279 214.707 217.233 216.847 218.157 219.116C219.515 217.159 220.661 215.524 221.787 213.876C222.178 213.304 222.544 212.57 223.321 212.713C224.225 212.881 224.01 213.764 224.017 214.405C224.042 216.736 224.027 219.068 224.027 221.399C223.702 221.397 223.377 221.395 223.052 221.392Z" fill="white"/>
<path d="M113.432 8.90318C110.145 5.43843 108.646 5.42871 105.789 9.8244C106.243 6.22284 107.661 3.69208 108.719 1.0768C109.332 -0.437276 110.157 0.390899 110.539 1.32732C111.561 3.8295 112.475 6.37546 113.432 8.90318Z" fill="white"/>
<path d="M194.941 222.089C193.535 220.151 195.219 217.176 191.624 217.325C188.27 217.464 190.007 220.177 188.595 222.005C188.595 218.606 188.595 215.834 188.595 212.629C189.744 214.204 189.088 216.92 192.299 216.452C194.926 216.07 193.527 213.923 194.941 212.741C194.941 215.821 194.941 218.605 194.941 222.089Z" fill="white"/>
<path d="M127.771 213.062C127.771 215.839 127.771 218.615 127.771 221.856C126.087 220.395 127.934 216.634 124.205 217.403C122.688 217.715 122.646 217.509 121.23 222.28C121.23 218.599 121.23 215.828 121.23 212.154C122.319 214.3 121.781 216.63 124.735 216.445C127.456 216.274 126.448 214.091 127.771 213.062Z" fill="white"/>
<path d="M102.529 204.029C99.1778 199.947 97.8059 199.947 94.8037 203.409C95.8498 200.698 96.8351 197.961 97.9803 195.292C98.3152 194.512 99.2282 194.564 99.5285 195.383C100.521 198.089 101.949 200.663 102.529 204.029Z" fill="white"/>
<path d="M162.284 221.28C163.284 218.68 164.224 216.055 165.312 213.491C165.812 212.313 166.593 212.187 167.131 213.548C168.156 216.14 169.148 218.745 169.926 221.423C166.74 217.826 165.2 217.818 162.284 221.28Z" fill="white"/>
<path d="M134.948 213.006C136.46 213.985 135.894 215.162 136.18 216.19C136.628 217.8 134.586 220.598 138.384 220.681C142.107 220.762 140.501 218.032 140.83 216.333C141.04 215.251 140.508 214.056 141.805 212.376C141.717 216.613 142.145 220.168 142.892 223.858C141.942 221.505 140.116 221.451 138.266 221.727C135.498 222.139 134.624 220.97 134.912 218.324C135.103 216.571 134.948 214.78 134.948 213.006Z" fill="white"/>
<path d="M133.738 194.845C134.849 197.02 133.969 199.02 134.596 201.255C136.441 199.658 137.295 197.559 138.608 195.837C139.019 195.297 139.387 194.606 140.217 194.94C140.858 195.199 140.762 195.876 140.766 196.428C140.78 198.789 140.772 201.149 140.404 203.543C139.003 201.695 140.154 199.389 139.165 196.938C137.697 199.149 136.475 201.018 135.216 202.862C134.913 203.306 134.591 203.888 133.882 203.666C133.134 203.431 133.333 202.737 133.352 202.232C133.441 199.904 133.015 197.541 133.738 194.845Z" fill="white"/>
<path d="M84.5289 212.975C84.5289 214.893 84.5289 216.81 84.5289 219.271C86.66 217.533 87.4538 215.41 88.7984 213.734C89.1983 213.236 89.5205 212.471 90.38 212.824C91.059 213.103 90.8827 213.797 90.8638 214.317C90.7775 216.647 91.1975 219.011 90.4402 221.849C89.5041 219.387 90.1362 217.319 89.7794 215.053C87.6283 216.462 86.973 218.848 85.5203 220.577C85.0893 221.09 84.7756 221.826 83.9307 221.466C83.2706 221.185 83.4682 220.494 83.4621 219.963C83.436 217.648 83.4511 215.332 83.4511 213.016C83.8104 213.003 84.1696 212.989 84.5289 212.975Z" fill="white"/>
<path d="M137.14 0.000407643C139.686 0.032635 141.351 1.95229 141.318 4.8187C141.284 7.71308 139.642 9.46735 136.999 9.43147C134.385 9.39559 132.785 7.57992 132.816 4.6825C132.847 1.84953 134.585 -0.0318197 137.14 0.000407643ZM134.062 4.51345C134.076 6.80403 134.781 8.45735 137.074 8.46587C139.377 8.47438 140.137 6.76268 140.115 4.76337C140.095 2.81695 139.534 1.08702 137.093 1.09857C134.682 1.10952 134.136 2.75615 134.062 4.51345Z" fill="white"/>
<path d="M210.21 217.014C210.238 219.866 208.59 221.714 205.989 221.75C203.329 221.786 201.739 220.068 201.708 217.125C201.679 214.238 203.319 212.349 205.882 212.318C208.401 212.287 210.182 214.221 210.21 217.014ZM208.961 216.903C208.881 215.124 208.396 213.437 205.965 213.416C203.544 213.396 202.93 215.087 202.9 217.05C202.869 219.051 203.62 220.767 205.913 220.785C208.205 220.803 208.928 219.154 208.961 216.903Z" fill="white"/>
<path d="M126.191 9.65478C124.481 8.03064 126.575 4.88452 122.849 4.99094C119.465 5.08762 120.979 7.68587 119.836 9.01449C119.375 6.23807 119.239 3.50483 119.722 0.311279C120.931 1.74996 119.783 4.05999 122.667 4.14633C125.702 4.23754 124.98 1.91657 126.192 0.646932C126.191 3.46531 126.191 6.28489 126.191 9.65478Z" fill="white"/>
<path d="M170.053 229.948C170.264 232.081 170.57 233.916 173.348 233.909C174.701 233.905 175.42 235.311 175.064 236.731C174.523 238.892 172.717 238.808 170.967 238.905C169.338 238.996 169.095 238.163 169.132 236.827C169.193 234.604 169.149 232.377 169.149 230.151C169.45 230.084 169.751 230.016 170.053 229.948ZM173.864 235.976C173.636 234.712 172.594 234.677 171.572 234.662C170.145 234.642 170.419 235.718 170.406 236.572C170.392 237.567 170.916 238.004 171.893 237.851C172.934 237.688 173.908 237.425 173.864 235.976Z" fill="white"/>
<path d="M69.8291 213.005C70.9275 214.448 70.4345 216.656 73.4725 216.437C76.0905 216.247 75.231 214.336 76.2583 212.355C76.2583 215.914 76.2583 218.65 76.2583 221.594C74.8347 220.315 76.6795 217.262 73.061 217.293C69.42 217.324 71.5961 220.47 69.8297 221.915C69.8291 218.627 69.8291 215.816 69.8291 213.005Z" fill="white"/>
<path d="M107.976 203.161C109.664 202.705 112.328 203.927 112.622 201.308C112.884 198.97 110.181 200.091 108.828 199.153C109.786 197.851 112.967 199.094 112.421 196.649C111.933 194.462 109.69 196.012 107.866 195.511C109.625 194.33 111.181 194.047 112.71 195.008C114.199 195.944 113.962 197.229 112.962 198.496C112.817 198.679 112.829 199.214 112.986 199.375C114.239 200.663 114.491 202.012 112.971 203.151C111.415 204.317 109.688 204.102 107.976 203.161Z" fill="white"/>
<path d="M84.0965 203.777C83.0741 201.06 83.4133 198.379 83.5549 195.752C83.6327 194.306 85.032 194.63 86.0051 194.653C87.4263 194.685 88.8188 194.949 89.2565 196.581C89.623 197.95 89.1714 199.38 87.8268 199.659C85.5049 200.14 84.1038 201.132 84.0965 203.777ZM85.858 199.128C86.9315 199.064 87.9575 198.877 88.0572 197.529C88.1545 196.218 87.2956 195.773 86.1571 195.624C84.9049 195.46 84.5505 196.108 84.6411 197.213C84.7104 198.066 84.3925 199.157 85.858 199.128Z" fill="white"/>
<path d="M62.8729 212.522C61.7344 214.28 58.9134 212.195 59.1383 215.077C59.3152 217.344 61.4749 215.664 62.4164 216.778C61.856 218.228 58.6788 216.345 59.0793 219.264C59.4155 221.716 61.6214 220.039 62.8875 221.548C61.0737 221.69 58.7864 222.399 58.2958 221.222C57.2692 218.759 57.3883 215.742 58.1809 213.221C58.6891 211.605 60.9351 212.699 62.8729 212.522Z" fill="white"/>
<path d="M114.165 212.861C113.259 214.287 110.434 212.19 110.654 215.07C110.827 217.346 112.986 215.665 113.931 216.771C113.383 218.235 110.232 216.338 110.585 219.258C110.896 221.834 113.509 219.816 114.273 221.545C112.592 221.544 110.124 222.581 109.656 220.955C108.933 218.449 108.721 215.402 109.847 212.945C110.348 211.85 112.617 212.315 114.165 212.861Z" fill="white"/>
<path d="M175.91 221.354C175.91 219.193 175.894 217.032 175.916 214.871C175.927 213.771 175.656 212.421 177.466 212.502C179.027 212.572 180.845 212.268 181.492 214.255C181.958 215.687 181.651 217.385 180.058 217.571C177.558 217.864 176.849 219.36 175.91 221.354ZM180.517 215.205C180.291 214.105 179.618 213.539 178.442 213.486C177.12 213.427 177.06 214.291 177.06 215.234C177.06 216.187 177.155 217.028 178.462 216.98C179.638 216.937 180.345 216.433 180.517 215.205Z" fill="white"/>
<path d="M165.687 203.294C165.687 201.291 165.687 199.29 165.687 196.203C163.809 198.956 162.513 200.877 161.191 202.78C160.886 203.221 160.628 203.834 159.904 203.648C159.144 203.453 159.279 202.765 159.296 202.256C159.374 199.912 158.939 197.532 159.67 194.961C160.903 197.019 159.711 199.166 160.741 201.521C162.104 199.472 163.249 197.703 164.452 195.972C164.81 195.458 165.117 194.68 165.99 194.954C166.691 195.173 166.607 195.858 166.593 196.39C166.531 198.744 166.909 201.128 165.687 203.294Z" fill="white"/>
<path d="M50.6569 221.578C49.5914 220.275 50.2278 218.943 49.95 217.769C49.5634 216.134 51.4131 213.335 47.5691 213.426C43.6874 213.518 45.8428 216.337 45.4234 217.923C45.131 219.03 45.3668 220.276 44.9268 221.457C43.7664 218.913 43.9718 216.233 44.2745 213.688C44.5341 211.508 46.6755 212.609 47.9654 212.533C49.02 212.472 50.8429 211.757 50.9566 213.711C51.1043 216.253 51.4119 218.855 50.6569 221.578Z" fill="white"/>
<path d="M173.573 153.127C171.826 153.132 170.107 153.018 169.185 151.202C168.895 150.63 168.463 149.891 169.207 149.37C169.893 148.89 170.501 149.25 170.911 149.897C172.505 152.404 174.284 152.21 176.066 150.173C176.625 149.534 177.144 148.728 177.947 149.369C178.925 150.15 178.086 151.025 177.578 151.708C176.582 153.043 175.071 153.112 173.573 153.127Z" fill="white"/>
<path d="M150.271 219.636C151.798 217.341 152.943 215.571 154.147 213.843C154.502 213.332 154.803 212.55 155.683 212.826C156.393 213.049 156.302 213.732 156.288 214.258C156.227 216.612 156.608 218.995 155.903 221.782C154.799 219.357 155.691 217.174 155.007 214.62C153.506 216.821 152.21 218.74 150.89 220.644C150.583 221.086 150.322 221.693 149.604 221.514C148.843 221.324 148.975 220.635 148.992 220.126C149.07 217.779 148.637 215.398 149.419 212.635C150.392 214.915 149.635 216.995 150.271 219.636Z" fill="white"/>
<path d="M103.823 230.388C103.823 232.255 103.823 234.123 103.823 235.99C104.046 236.087 104.269 236.183 104.493 236.28C105.609 234.669 106.714 233.051 107.846 231.452C108.285 230.83 108.594 229.776 109.495 229.978C110.713 230.251 110.248 231.46 110.276 232.286C110.342 234.306 110.297 236.33 109.473 238.408C109.381 236.424 109.289 234.44 109.183 232.146C107.13 233.65 106.392 235.938 104.977 237.675C104.578 238.165 104.325 239.015 103.438 238.633C102.803 238.359 102.97 237.671 102.964 237.144C102.938 234.892 102.953 232.639 102.953 230.387C103.242 230.387 103.533 230.387 103.823 230.388Z" fill="white"/>
<path d="M146.537 239.041C144.537 238.459 142.262 239.925 141.801 238.051C141.196 235.595 141.242 232.721 141.945 230.299C142.354 228.892 144.628 229.782 146.276 229.813C145.32 231.426 142.725 229.512 142.766 232.059C142.805 234.562 145.223 232.809 146.158 233.931C145.547 235.452 142.401 233.496 142.706 236.411C142.953 238.771 145.293 237.221 146.537 239.041Z" fill="white"/>
<path d="M123.193 230.322C120.765 230.476 118.461 230.468 118.162 233.716C117.836 237.25 119.869 238.295 123.038 238.309C120.873 239.248 118.956 239.224 117.682 237.182C116.435 235.183 116.421 232.963 117.915 231.11C119.32 229.365 121.231 229.096 123.193 230.322Z" fill="white"/>
<path d="M96.3159 230.358C93.4499 230.256 91.1541 230.84 91.145 234.281C91.1365 237.446 93.1114 238.361 95.9895 238.336C94.2079 239.025 92.4616 239.354 91.0903 237.694C89.5506 235.831 89.5068 233.598 90.6386 231.592C91.8835 229.383 93.9417 229.099 96.3159 230.358Z" fill="white"/>
<path d="M146.021 194.994C148.857 194.449 150.838 194.538 153.281 194.819C148.293 196.678 151.762 200.942 149.975 203.749C147.538 201.357 151.89 196.538 146.021 194.994Z" fill="white"/>
<path d="M100.183 221.595C98.4213 218.801 102.002 214.536 97.1284 212.842C99.2875 212.166 101.257 212.519 103.262 212.777C98.4049 214.439 102.38 218.927 100.183 221.595Z" fill="white"/>
<path d="M129.338 229.808C131.209 229.808 133.079 229.808 135.65 229.808C130.501 231.779 133.959 235.925 132.291 238.74C129.843 236.376 134.17 231.518 129.338 229.808Z" fill="white"/>
<path d="M176.928 230.197C178.089 233.014 177.801 235.793 176.928 238.588C176.928 235.791 176.928 232.994 176.928 230.197Z" fill="white"/>
<path d="M135.421 50.9781C135.019 48.9812 135.244 46.6268 131.721 47.3352C133.265 46.8099 134.453 46.4541 135.401 45.4545C136.629 47.4988 135.126 49.1594 135.421 50.9781Z" fill="white"/>
<path d="M88.3712 33.7942C87.756 31.6198 88.0794 29.4539 88.4496 27.2892C89.2428 29.46 89.5656 31.6247 88.3475 33.7748C88.3511 33.7791 88.3712 33.7942 88.3712 33.7942Z" fill="white"/>
</svg>
